<?xml version="1.0" standalone="no"?>
<!DOCTYPE svg PUBLIC "-//W3C//DTD SVG 1.1//EN" "http://www.w3.org/Graphics/SVG/1.1/DTD/svg11.dtd" >
<!--
2013-9-30: Created.
-->
<svg>
<metadata>
Created by iconfont
</metadata>
<defs>

<font id="iconfont" horiz-adv-x="1024" >
  <font-face
    font-family="iconfont"
    font-weight="500"
    font-stretch="normal"
    units-per-em="1024"
    ascent="896"
    descent="-128"
  />
    <missing-glyph />
    
    <glyph glyph-name="gowhere" unicode="&#58883;" d="M512 774.675c0 0 0 0 0 0-201.497 0-365.557-164.060-365.557-365.557 0-197.092 347.94-589.075 364.455-607.793 0 0 1.102-1.1 1.102-1.1s365.557 407.397 365.557 608.895c0 202.597-164.060 365.557-365.557 365.557v0zM512 165.78c0 0 0 0 0 0-134.331 0-243.338 109.007-243.338 243.338s109.007 243.338 242.237 243.338c0 0 0 0 1.102 0 134.331 0 243.338-109.007 243.338-243.338 0-134.331-109.007-243.338-243.338-243.338v0zM512 531.338c0 0 0 0 0 0-67.167 0-122.22-55.054-122.22-122.22s53.953-121.118 121.118-121.118c0 0 0 0 1.102 0 67.165 0 122.22 55.054 122.22 122.22s-55.054 121.118-122.22 121.118v0zM512 531.338z"  horiz-adv-x="1024" />

    
    <glyph glyph-name="qunawanhuodong" unicode="&#58900;" d="M307.198462-160.758537l230.957173 159.918504L90.67426 618.710807 307.198462-160.758537zM716.804401-160.758537l0 256.000007L51.198454 760.788144 716.804401-160.758537 716.804401-160.758537zM743.269787 141.118758l229.504985 158.881227L196.031985 688.415833 743.269787 141.118758zM18.657588 800.323223C27.993082 808.02871 39.58095 812 51.228091 812 59.022488 812 66.846522 810.221811 74.107462 806.606159L995.683779 345.818c16.21116-8.090762 26.909934-24.124103 28.154666-42.202363 1.304006-18.018986-7.023848-35.415606-21.901367-45.699469l-234.069004-162.081968c0-0.207455 0.148182-0.414911 0.148182-0.622366l0-256.000007c0-22.227368-14.284789-41.876361-35.415606-48.722391-5.186386-1.68928-10.491318-2.489465-15.766613-2.489465-16.122251 0-31.711045 7.646215-41.491087 21.219727l-107.135914 148.360273-231.786994-160.481598c-8.653855-5.986571-18.878445-9.098403-29.13267-9.098403-5.868025 0-11.73605 1.007641-17.39662 3.082195-15.618431 5.601297-27.473027 18.463534-31.918501 34.437602L1.883334 747.125722C-3.540144 766.596896 3.068793 787.460986 18.657588 800.323223L18.657588 800.323223z"  horiz-adv-x="1024" />

    
    <glyph glyph-name="qunawandawanjia" unicode="&#58909;" d="M82.734564 812l0-990.577001c1.904604-42.38887 39.432924-38.73203 66.371645-20.44783l362.88042 201.293804 363.154683-201.537593c35.242795-18.482279 67.179198-10.772441 66.097382 30.580324L941.238694 812 82.734564 812zM340.907465 106.06228c-0.95992 26.893011 4.403445 63.034779 18.939384 89.912553l313.543554 0c13.591255-25.719774 19.274594-61.983438 19.579331-89.912553L340.907465 106.06228zM746.847176 413.099707l-73.456773-191.20702L359.862086 221.892687l-81.349453 191.892677c-23.81517 0-44.887711 22.535276-44.887711 48.544551 0 26.649221 22.443855 49.184498 48.986419 49.184498 26.51209 0 48.285524-22.535276 48.285524-49.184498 0-7.526996-2.041736-14.383571-11.579993-29.407088l79.307717-79.947664 29.239483 142.144417c-19.046042 0.685657-38.076846 21.849619-38.076846 47.828419 0 28.706194 23.114276 51.957601 51.683338 51.957601 27.883405 0 51.683338-23.236171 51.683338-51.957601 0-15.709175-8.151706-34.16098-23.799933-41.687976l48.285524-140.757865 1.371315 0 46.243789 140.757865c-12.936071 10.269626-20.386883 25.323617-20.386883 41.687976 0 28.706194 23.114276 51.957601 51.668101 51.957601 27.883405 0 51.713812-23.236171 51.713812-51.957601 0-24.592249-14.29215-40.987081-35.379927-47.828419l23.799933-142.144417 67.331566 79.262006c-6.094733 6.856575-10.863862 17.766148-10.863862 30.092746 0 25.948327 21.758198 48.49884 48.285524 48.49884 26.51209 0 48.971182-22.550513 48.971182-48.49884C790.363572 437.021535 771.302293 416.512757 746.847176 413.099707z"  horiz-adv-x="1024" />

    
    <glyph glyph-name="qunawanshangjia2" unicode="&#58911;" d="M985.372648 471.267878c-12.813151 14.353735-22.770585 37.199471-22.770585 63.051224 0 54.333772 45.578746 101.603403 101.1525 101.603403 55.53618 0 102.542784-47.269631 102.542784-101.603403 0-52.981064-39.942462-95.96712-91.157491-103.106412l-153.908113-400.551877L264.45442 30.660813 94.050783 432.640548C44.150887 432.640548 0 479.835029 0 534.319102c0 55.799206 47.006604 103.031261 102.617934 103.031261 55.53618 0 101.1525-47.232055 101.1525-103.031261 0-15.781594-4.283575-30.135329-24.273594-61.623366l166.157636-167.472769 61.247614 297.783642C367.034778 604.434468 327.167467 648.773231 327.167467 703.182154 327.167467 763.302511 375.564354 812 435.421684 812c58.391897 0 108.254217-48.697489 108.254217-108.817846 0-32.915895-17.096726-71.543225-49.862321-87.324818l101.1525-294.89035 2.855717 0 96.868925 294.89035c-27.054161 21.493028-42.723029 53.01864-42.723029 87.324818C652.00527 763.302511 700.439732 812 760.259487 812c58.391897 0 108.291793-48.697489 108.291793-108.817846 0-51.515631-29.947453-85.859385-74.09834-100.175545l49.824746-297.783642L985.372648 471.267878 985.372648 471.267878zM962.263886-211.999978c-0.676354 58.504622-12.550124 134.481723-41.032144 188.364593L264.45442-23.635385c-30.473506-56.325259-41.670922-132.039334-39.679436-188.364593L962.263886-211.999978 962.263886-211.999978z"  horiz-adv-x="1167" />

    
    <glyph glyph-name="qunawanxiaohuoban2" unicode="&#58914;" d="M989.115583 709.93439C973.623208 747.852362 952.884899 782.027622 928.066421 812c8.344408-98.905779-21.443902-196.707151-81.112556-273.800893-82.370353 91.849846-201.922406 149.647143-334.972767 149.647143l0 0c-133.019683 0-252.571737-57.797298-334.972767-149.647143C117.370354 615.292849 87.551366 713.094221 95.895775 812 71.107974 782.027622 50.400343 747.88304 34.907968 709.93439c-51.692381-126.546631-32.549327-264.413434 38.899667-369.608197-7.669493-32.886785-11.718985-67.154079-11.718985-102.403068 0-248.460889 201.492915-449.923125 449.923125-449.923125 248.430211 0 449.923125 201.462237 449.923125 449.923125 0 35.218311-4.08017 69.516283-11.749663 102.403068C1021.634233 445.551634 1040.777287 583.418437 989.115583 709.93439zM834.437253 174.297013c-43.746787-134.645616-170.26274-232.048174-319.51107-232.048174-157.899518 0-290.428353 109.090866-326.290901 255.976992-6.35034 30.800683 22.885766 41.814075 43.163905 16.228647 59.637976-93.29171 164.157824-155.199856 283.126996-155.199856 112.49612 0 212.076815 55.312382 273.003266 140.259684C804.342163 220.406004 845.450644 203.625154 834.437253 174.297013z"  horiz-adv-x="1024" />

    
    <glyph glyph-name="qunawantuijian" unicode="&#58915;" d="M82.734564 812l0-990.577001c1.904604-42.38887 39.432924-38.73203 66.371645-20.44783l362.88042 201.293804 363.154683-201.537593c35.242795-18.482279 67.179198-10.772441 66.097382 30.580324L941.238694 812 82.734564 812zM686.920711 128.536609l-173.014241 84.229214-173.014241-84.229214 29.833719 184.198077-136.765815 132.118581 191.435572 29.574693 88.495527 165.913877 88.495527-165.913877 191.450809-29.574693-136.811525-132.118581L686.920711 128.536609z"  horiz-adv-x="1024" />

    
    <glyph glyph-name="qunawanno" unicode="&#58916;" d="M192.42969-131.008509c-18.765958-66.585236 47.734492-87.711069 92.69931-57.258781 79.048771 53.54233 151.682072 108.526021 253.495872 106.024836 105.883526-2.614234 183.250709-60.932839 267.499685-118.869908 51.097668-31.441458 99.849592 9.877564 83.909833 64.437325-26.947802 92.105808-55.294573 176.14282-24.828154 271.202005 33.278487 103.876925 105.841133 160.711776 190.075978 224.626254 22.609588 11.573283 51.747694 86.128398-28.092413 91.498175-99.298483 4.493656-190.38686 9.552551-276.430472 65.369971C651.333666 580.501087 625.75657 668.932837 587.320271 774.745707c-14.498398 49.387818-87.626283 49.091067-100.52788 2.55771-36.147078-100.075688-68.309217-192.760867-158.083411-256.46338-86.100136-61.102411-182.586552-54.489106-284.993854-53.287972-42.449501 0.508716-58.940369-63.617728-27.004326-86.01535 88.558929-64.168836 177.358085-127.235455 208.078862-236.877825C251.94943 47.706151 219.207921-38.718998 192.42969-131.008509L192.42969-131.008509zM422.510507 412.582505c21.592156 0 39.114587-17.5083 39.114587-39.128718 0-21.578025-17.5083-39.100456-39.114587-39.100456s-39.114587 17.5083-39.114587 39.100456C383.410052 395.060074 400.918351 412.582505 422.510507 412.582505zM657.169766 412.582505c21.592156 0 39.114587-17.5083 39.114587-39.128718 0-21.578025-17.5083-39.100456-39.114587-39.100456s-39.114587 17.5083-39.114587 39.100456C618.055179 395.060074 635.563479 412.582505 657.169766 412.582505zM352.505571 93.151423c-7.447033-6.514387-18.780089-5.751314-25.294476 1.695719-6.514387 7.432902-5.765445 18.765958 1.681588 25.294476 0.268489 0.226096 88.474143 78.978116 219.793455 77.791113 75.996477-0.664157 145.167684-27.541304 202.172107-77.875899 7.40464-6.542649 8.097059-17.875705 1.540278-25.280345s-17.889836-8.11119-25.294476-1.540278c-50.447643 44.540888-111.408744 68.280955-178.700529 68.874457C430.904317 163.156359 352.731667 93.363388 352.505571 93.151423L352.505571 93.151423z"  horiz-adv-x="1080" />

    
    <glyph glyph-name="qunawanok" unicode="&#58917;" d="M192.42969-131.008509c-18.765958-66.585236 47.734492-87.711069 92.69931-57.258781 79.048771 53.54233 151.682072 108.526021 253.495872 106.024836 105.883526-2.614234 183.250709-60.932839 267.499685-118.869908 51.097668-31.441458 99.849592 9.877564 83.909833 64.437325-26.947802 92.105808-55.294573 176.14282-24.828154 271.202005 33.278487 103.876925 105.841133 160.711776 190.075978 224.626254 22.609588 11.573283 51.747694 86.128398-28.092413 91.498175-99.298483 4.493656-190.38686 9.552551-276.430472 65.369971C651.333666 580.501087 625.75657 668.932837 587.320271 774.745707c-14.498398 49.387818-87.626283 49.091067-100.52788 2.55771-36.147078-100.075688-68.309217-192.760867-158.083411-256.46338-86.100136-61.102411-182.586552-54.489106-284.993854-53.287972-42.449501 0.508716-58.940369-63.617728-27.004326-86.01535 88.558929-64.168836 177.358085-127.235455 208.078862-236.877825C251.94943 47.706151 219.207921-38.718998 192.42969-131.008509L192.42969-131.008509zM422.510507 412.582505c21.592156 0 39.114587-17.5083 39.114587-39.128718 0-21.578025-17.5083-39.100456-39.114587-39.100456s-39.114587 17.5083-39.114587 39.100456C383.410052 395.060074 400.918351 412.582505 422.510507 412.582505zM657.169766 412.582505c21.592156 0 39.114587-17.5083 39.114587-39.128718 0-21.578025-17.5083-39.100456-39.114587-39.100456s-39.114587 17.5083-39.114587 39.100456C618.055179 395.060074 635.563479 412.582505 657.169766 412.582505zM727.174702 193.523861c7.432902 6.514387 18.765958 5.751314 25.280345-1.681588 6.528518-7.447033 5.765445-18.780089-1.681588-25.308607-0.254358-0.211965-88.460012-78.963985-219.779324-77.791113-76.010608 0.664157-145.167684 27.541304-202.186238 77.875899-7.40464 6.55678-8.082928 17.875705-1.540278 25.280345 6.570911 7.40464 17.889836 8.11119 25.294476 1.554409 50.461774-44.555019 111.422875-68.295086 178.700529-68.888588C648.775957 123.518925 726.934475 193.326027 727.174702 193.523861z"  horiz-adv-x="1080" />

    
    <glyph glyph-name="qunawanvip" unicode="&#58918;" d="M82.742182 812l0-990.577001c1.889367-42.38887 39.417688-38.73203 66.356409-20.44783l362.88042 201.293804 363.154683-201.537593c35.242795-18.482279 67.179198-10.772441 66.097382 30.580324L941.231076 812 82.742182 812zM736.859432 562.679698c-15.450149-1.325604-28.325273-6.856575-38.747267-16.592911-10.300099-9.827757-22.23054-29.574693-35.593242-59.438886-17.918516-40.636634-37.863531-88.632659-60.002649-144.064258-22.047698-55.446836-44.567737-114.504802-67.468697-177.097712l-22.428618 5.073865-31.585955-5.073865c-12.387545 29.285193-29.391851 69.556144-50.845312 121.087114-76.900297 184.030472-127.578004 276.106655-151.804569 276.106655L275.64049 562.679698l0 20.143094c21.925803-1.721762 41.124213-3.824445 57.336203-6.39947 16.211991-2.666446 30.626035-5.82047 43.30308-9.553494 16.029149 4.129182 32.637297 7.542232 49.717787 10.223915 17.171911 2.666446 35.120901 4.586287 53.999337 5.729049l0-19.853594c-12.311361-1.904604-20.889698-4.967208-25.567406-9.248758-4.769129-4.296787-7.161312-10.985757-7.161312-20.127857 0-12.981782 7.923153-40.545213 23.754223-82.736004 15.846307-42.068896 38.076846-94.83405 66.798277-158.188802 29.955614 76.610797 50.571049 131.859555 61.63299 165.731035 11.077178 33.962901 16.608148 57.260019 16.608148 69.937064 0 10.589599-2.864525 18.61941-8.486916 23.845644-5.744286 5.363365-15.191123 8.883074-28.447168 10.482941l0 20.143094c11.747598-0.579 24.226565-1.919841 37.497847-3.915866 13.271282-2.102683 27.578668-4.967208 43.028817-8.669758 14.04836 3.336866 27.395826 6.079496 40.179529 8.090758 12.783703 2.102683 25.095064 3.519708 37.025505 4.494866L736.859432 562.679698z"  horiz-adv-x="1024" />

    
    <glyph glyph-name="qunawanrenzhengvip" unicode="&#58919;" d="M998.378615 812 25.621385 812C11.527587 812 0 800.472413 0 786.378615L0-186.378615c0-14.093798 11.527587-25.621385 25.621385-25.621385L998.378615-212c14.093798 0 25.621385 11.527587 25.621385 25.621385L1024 786.378615C1023.959266 800.472413 1012.43168 812 998.378615 812zM814.507498 533.667847C794.62954 531.957039 778.010263 524.828673 764.649668 512.323481c-13.279128-12.668125-28.635666-38.085843-45.825212-76.538287-23.055173-52.301842-48.758025-114.094594-77.230757-185.459724-28.350531-71.36513-57.352798-147.373881-86.843868-227.944787l-28.839333 6.47663-40.652055-6.47663c-15.96754 37.719241-37.841442 89.532281-65.458769 155.846454-98.982458 236.906162-164.196826 355.44071-195.398703 355.44071L220.857154 533.667847 220.857154 559.574367c28.22833-2.19961 52.912845-4.888023 73.809141-8.187438C315.521858 547.924579 334.055611 543.851227 350.389753 539.085405c20.611162 5.295358 41.996261 9.694578 63.951629 13.116194 22.118302 3.462349 45.173475 5.906361 69.532121 7.372767l0-25.539918c-15.84534-2.444011-26.884124-6.354429-32.912685-11.894188-6.150762-5.539759-9.246509-14.134532-9.246509-25.947253 0-16.700744 10.18338-52.179641 30.590875-106.477426 20.366761-54.13485 48.961693-122.078364 85.947731-203.586141 38.533911 98.615856 65.092168 169.695851 79.308167 213.280719 14.256733 43.707069 21.385099 73.727674 21.385099 90.021083 0 13.64573-3.70675 23.951311-10.957317 30.713075-7.413501 6.883965-19.511357 11.44612-36.578702 13.523529L611.41016 559.574367c15.071403-0.733203 31.201878-2.444011 48.269223-5.010223 17.067346-2.688412 35.478897-6.395163 55.397589-11.160985 18.04495 4.27702 35.234496 7.820836 51.690839 10.427782 16.456343 2.688412 32.342416 4.521421 47.65822 5.78416L814.426031 533.667847z"  horiz-adv-x="1024" />

    
    <glyph glyph-name="qunawanrenzhengdawanjia" unicode="&#58920;" d="M998.378615 812 25.621385 812C11.527587 812 0 800.472413 0 786.378615L0-186.378615c0-14.093798 11.527587-25.621385 25.621385-25.621385L998.378615-212c14.093798 0 25.621385 11.527587 25.621385 25.621385L1024 786.378615C1023.959266 800.472413 1012.43168 812 998.378615 812zM332.018935 72.808783c-0.936871 26.884124 4.39922 63.096225 18.981821 89.980349l313.851784 0c13.564263-25.743586 19.307689-62.037153 19.55209-89.980349L332.018935 72.808783zM738.376546 380.10247l-73.524007-191.366085L351.000756 188.736386l-81.42631 192.099288c-23.82911 0-44.969808 22.566371-44.969808 48.554358 0 26.639723 22.525637 49.246828 49.04316 49.246828s48.35069-22.607104 48.35069-49.246828c0-7.576435-2.036676-14.419667-11.609054-29.450336l79.389634-80.04137 29.287402 142.282191C400.003182 462.872986 380.939894 484.054417 380.939894 510.083138c0 28.717133 23.095907 51.93524 51.772306 51.93524 27.902462 0 51.731572-23.218107 51.731572-51.93524 0-15.763873-8.146704-34.216158-23.82911-41.75186l48.35069-140.897251 1.344206 0 46.314014 140.897251c-12.912526 10.305581-20.407494 25.33625-20.407494 41.75186 0 28.717133 23.13664 51.93524 51.731572 51.93524 27.943196 0 51.772306-23.218107 51.772306-51.93524 0-24.643781-14.297466-41.05939-35.356697-47.902621l23.788377-142.282191 67.373245 79.3489c-6.110028 6.843232-10.87585 17.800549-10.87585 30.102072 0 25.987987 21.751701 48.513624 48.35069 48.513624 26.517523 0 49.002427-22.566371 49.002427-48.513624C781.920681 404.053781 762.816659 383.56482 738.376546 380.10247z"  horiz-adv-x="1024" />

    
    <glyph glyph-name="qunawanrenzhengshenfen" unicode="&#58921;" d="M470.553642 362.994391l301.876129 0 0-38.615378-301.876129 0 0 38.615378ZM470.553642 468.290545l301.876129 0 0-38.615378-301.876129 0 0 38.615378ZM256.458252 468.290545l138.656908 0 0-149.166156-138.656908 0 0 149.166156ZM998.378615 812 25.621385 812C11.527587 812 0 800.472413 0 786.378615L0-186.378615c0-14.093798 11.527587-25.621385 25.621385-25.621385L998.378615-212c14.093798 0 25.621385 11.527587 25.621385 25.621385L1024 786.378615C1023.959266 800.472413 1012.43168 812 998.378615 812zM846.035244 75.863797c0-10.75365-8.391105-19.511357-18.696686-19.511357L196.620709 56.35244c-10.305581 0-18.696686 8.757707-18.696686 19.511357L177.924022 524.176936c0 10.75365 8.391105 19.511357 18.696686 19.511357l630.717849 0c10.305581 0 18.696686-8.757707 18.696686-19.511357L846.035244 75.863797z"  horiz-adv-x="1024" />

    
    <glyph glyph-name="qunawanrenzhengshouji" unicode="&#58922;" d="M497.804368 51.790286m-38.941247 0a0.956 0.956 0 1 0 77.882493 0 0.956 0.956 0 1 0-77.882493 0ZM328.067783 593.668324l339.473169 0 0-477.519074-339.473169 0 0 477.519074ZM998.378615 812 25.621385 812C11.527587 812 0 800.472413 0 786.378615L0-186.378615c0-14.093798 11.527587-25.621385 25.621385-25.621385L998.378615-212c14.093798 0 25.621385 11.527587 25.621385 25.621385L1024 786.378615C1023.959266 800.472413 1012.43168 812 998.378615 812zM718.335654-5.114444c0-10.427782-7.902303-18.941088-17.637615-18.941088L294.95143-24.055531c-9.735312 0-17.678348 8.513306-17.678348 18.941088L277.273082 634.116711c0 10.427782 7.902303 18.981821 17.678348 18.981821l405.787342 0c9.694578 0 17.637615-8.55404 17.637615-18.981821L718.376387-5.114444z"  horiz-adv-x="1024" />

    
    <glyph glyph-name="qunawandengji01" unicode="&#58923;" d="M998.378615 812 25.621385 812C11.527587 812 0 800.472413 0 786.378615L0-186.378615c0-14.093798 11.527587-25.621385 25.621385-25.621385L998.378615-212c14.093798 0 25.621385 11.527587 25.621385 25.621385L1024 786.378615C1023.959266 800.472413 1012.43168 812 998.378615 812zM780.454274 6.901945c0.69247-25.90652-19.307689-30.713075-41.344524-19.144755l-227.130117 126.070249-226.967182-125.907315c-16.863678-11.44612-40.326186-13.76793-41.507459 12.749592L243.504992 620.22658 780.454274 620.22658 780.454274 6.901945zM554.138828 182.911492l-67.047377 0L487.091452 435.662994c-24.52158-22.932973-53.401647-39.878118-86.6402-50.835435L400.451251 445.68344c17.515414 5.743427 36.497235 16.578543 57.02693 32.586817s34.623493 34.664227 42.240662 55.967859l54.419985 0L554.138828 182.911492z"  horiz-adv-x="1024" />

    
    <glyph glyph-name="qunawandengji02" unicode="&#58924;" d="M998.378615 812 25.621385 812C11.527587 812 0 800.472413 0 786.378615L0-186.378615c0-14.093798 11.527587-25.621385 25.621385-25.621385L998.378615-212c14.093798 0 25.621385 11.527587 25.621385 25.621385L1024 786.378615C1023.959266 800.472413 1012.43168 812 998.378615 812zM780.454274 6.901945c0.69247-25.90652-19.307689-30.713075-41.344524-19.144755l-227.130117 126.070249-226.967182-125.907315c-16.863678-11.44612-40.326186-13.76793-41.507459 12.749592L243.504992 620.22658 780.454274 620.22658 780.454274 6.901945zM609.047615 245.193047l0-62.281555L373.933728 182.911492c2.566212 23.543975 10.18338 45.865945 22.932973 66.96591s37.882175 49.04316 75.438482 83.911055c30.224273 28.146863 48.758025 47.250885 55.601257 57.271331 9.246509 13.849397 13.849397 27.535861 13.849397 41.05939 0 14.949202-4.032619 26.436056-12.057122 34.501293s-19.144755 12.057122-33.279287 12.057122c-14.012331 0-25.132583-4.236286-33.401488-12.668125s-13.034727-22.44417-14.3382-41.996261L381.836032 430.652771c3.991885 36.904571 16.456343 63.422093 37.47484 79.471101s47.250885 24.114245 78.778631 24.114245c34.542026 0 61.670552-9.327976 81.385576-27.943196s29.61327-41.75186 29.61327-69.450654c0-15.763873-2.810613-30.753809-8.472572-44.969808s-14.582601-29.165201-26.843391-44.76614c-8.105971-10.346314-22.770039-25.21405-43.910736-44.64394s-34.58276-32.301683-40.203986-38.656112-10.224114-12.586658-13.727197-18.615219L609.047615 245.193047z"  horiz-adv-x="1024" />

    
    <glyph glyph-name="qunawandengji03" unicode="&#58925;" d="M998.378615 812 25.621385 812C11.527587 812 0 800.472413 0 786.378615L0-186.378615c0-14.093798 11.527587-25.621385 25.621385-25.621385L998.378615-212c14.093798 0 25.621385 11.527587 25.621385 25.621385L1024 786.378615C1023.959266 800.472413 1012.43168 812 998.378615 812zM780.454274 6.901945c0.69247-25.90652-19.307689-30.713075-41.344524-19.144755l-227.130117 126.070249-226.967182-125.907315c-16.863678-11.44612-40.326186-13.76793-41.507459 12.749592L243.504992 620.22658 780.454274 620.22658 780.454274 6.901945zM380.165957 275.743188l64.929233 7.86157c2.07741-16.53781 7.657902-29.205935 16.700744-37.963642s20.040893-13.116194 32.953419-13.116194c13.849397 0 25.499185 5.254624 34.949362 15.763873s14.215999 24.643781 14.215999 42.485063c0 16.863678-4.521421 30.224273-13.604996 40.081785s-20.12236 14.786268-33.157087 14.786268c-8.594773 0-18.859621-1.670074-30.794542-5.010223l7.413501 54.664386c18.126417-0.488802 31.975814 3.462349 41.548192 11.812721s14.3382 19.470623 14.3382 33.279287c0 11.771988-3.503083 21.181431-10.509249 28.146863s-16.293409 10.509249-27.943196 10.509249c-11.44612 0-21.222165-3.991885-29.368869-11.934922s-13.034727-19.55209-14.786268-34.827161L385.17618 442.832094c4.27702 21.181431 10.794383 38.085843 19.470623 50.713234s20.774096 22.607104 36.293568 29.816938 32.912685 10.87585 52.138908 10.87585c32.953419 0 59.348741-10.509249 79.2267-31.487012 16.374876-17.189546 24.603047-36.578702 24.603047-58.248936 0-30.713075-16.782211-55.193922-50.346633-73.524007 20.040893-4.27702 36.0899-13.930864 48.106289-28.880067s18.004217-33.034886 18.004217-54.175584c0-30.713075-11.201718-56.863996-33.645889-78.53423s-50.346633-32.464617-83.788854-32.464617c-31.649946 0-57.923068 9.124309-78.778631 27.332193S383.506106 246.333585 380.165957 275.743188z"  horiz-adv-x="1024" />

    
    <glyph glyph-name="qunawandengji04" unicode="&#58926;" d="M998.378615 812 25.621385 812C11.527587 812 0 800.472413 0 786.378615L0-186.378615c0-14.093798 11.527587-25.621385 25.621385-25.621385L998.378615-212c14.093798 0 25.621385 11.527587 25.621385 25.621385L1024 786.378615C1023.959266 800.472413 1012.43168 812 998.378615 812zM780.454274 6.901945c0.69247-25.90652-19.307689-30.713075-41.344524-19.144755l-227.130117 126.070249-226.967182-125.907315c-16.863678-11.44612-40.326186-13.76793-41.507459 12.749592L243.504992 620.22658 780.454274 620.22658 780.454274 6.901945zM514.057043 182.911492l0 70.428259L370.837981 253.339751l0 58.697005 151.813835 222.20136 56.33446 0 0-221.956959 43.421934 0 0-58.941406-43.421934 0 0-70.428259L514.057043 182.911492zM514.057043 312.281157 514.057043 431.834043l-80.448705-119.593619L514.057043 312.240423z"  horiz-adv-x="1024" />

    
    <glyph glyph-name="qunawandengji05" unicode="&#58927;" d="M998.378615 812 25.621385 812C11.527587 812 0 800.472413 0 786.378615L0-186.378615c0-14.093798 11.527587-25.621385 25.621385-25.621385L998.378615-212c14.093798 0 25.621385 11.527587 25.621385 25.621385L1024 786.378615C1023.959266 800.472413 1012.43168 812 998.378615 812zM780.454274 6.901945c0.69247-25.90652-19.307689-30.713075-41.344524-19.144755l-227.130117 126.070249-226.967182-125.907315c-16.863678-11.44612-40.326186-13.76793-41.507459 12.749592L243.504992 620.22658 780.454274 620.22658 780.454274 6.901945zM383.506106 272.891841l66.843709 6.924699c1.914476-15.112137 7.576435-27.087792 16.945145-35.926966s20.203827-13.238395 32.464617-13.238395c14.012331 0 25.865786 5.702693 35.560364 17.067346s14.541867 28.513465 14.541867 51.446438c0 21.466566-4.806556 37.59704-14.419667 48.35069s-22.159036 16.130475-37.59704 16.130475c-19.266956 0-36.497235-8.513306-51.772306-25.539918l-54.419985 7.86157 34.379092 182.119575 177.353753 0 0-62.770357-126.477585 0-10.509249-59.430208c14.949202 7.494968 30.224273 11.201718 45.825212 11.201718 29.735471 0 54.990254-10.835117 75.64215-32.464617s31.038943-49.73563 31.038943-84.236923c0-28.7986-8.350372-54.501452-25.051116-77.108556-22.770039-30.876009-54.338518-46.314014-94.746171-46.314014-32.301683 0-58.615538 8.67624-78.982298 26.02872S387.457258 243.604439 383.506106 272.891841z"  horiz-adv-x="1024" />

    
    <glyph glyph-name="qunawandengji06" unicode="&#58928;" d="M998.378615 812 25.621385 812C11.527587 812 0 800.472413 0 786.378615L0-186.378615c0-14.093798 11.527587-25.621385 25.621385-25.621385L998.378615-212c14.093798 0 25.621385 11.527587 25.621385 25.621385L1024 786.378615C1023.959266 800.472413 1012.43168 812 998.378615 812zM780.454274 6.901945c0.69247-25.90652-19.307689-30.713075-41.344524-19.144755l-227.130117 126.070249-226.967182-125.907315c-16.863678-11.44612-40.326186-13.76793-41.507459 12.749592L243.504992 620.22658 780.454274 620.22658 780.454274 6.901945zM609.740085 447.109113l-64.929233-7.1691c-1.588607 13.360595-5.743427 23.218107-12.423724 29.61327s-15.356538 9.531644-26.02872 9.531644c-14.175266 0-26.150921-6.354429-35.926966-19.104022s-15.96754-39.226381-18.493019-79.471101c16.700744 19.715024 37.47484 29.61327 62.281555 29.61327 28.024663 0 51.975974-10.672183 71.976133-31.975814s29.939138-48.839492 29.939138-82.566848c0-35.804766-10.509249-64.521898-31.487012-86.151398s-47.984088-32.464617-80.896774-32.464617c-35.315963 0-64.358964 13.727197-87.129003 41.18159s-34.134691 72.424201-34.134691 134.950157c0 64.114563 11.853455 110.34711 35.560364 138.656908s54.501452 42.485063 92.383627 42.485063c26.558256 0 48.554358-7.454234 65.988305-22.32197S604.974263 475.459644 609.740085 447.109113zM457.722582 300.794304c0-21.792434 5.010223-38.615378 15.030669-50.468833s21.466566-17.800549 34.379092-17.800549c12.423724 0 22.770039 4.847289 31.038943 14.541867s12.423724 25.621385 12.423724 47.739687c0 22.770039-4.439954 39.430049-13.360595 50.020765s-20.040893 15.886073-33.401488 15.886073c-12.871793 0-23.788377-5.050957-32.709018-15.15287S457.722582 320.550062 457.722582 300.794304z"  horiz-adv-x="1024" />

    
    <glyph glyph-name="qunawandengji07" unicode="&#58929;" d="M998.378615 812 25.621385 812C11.527587 812 0 800.472413 0 786.378615L0-186.378615c0-14.093798 11.527587-25.621385 25.621385-25.621385L998.378615-212c14.093798 0 25.621385 11.527587 25.621385 25.621385L1024 786.378615C1023.959266 800.472413 1012.43168 812 998.378615 812zM780.454274 6.901945c0.69247-25.90652-19.307689-30.713075-41.344524-19.144755l-227.130117 126.070249-226.967182-125.907315c-16.863678-11.44612-40.326186-13.76793-41.507459 12.749592L243.504992 620.22658 780.454274 620.22658 780.454274 6.901945zM382.528502 465.724333 382.528502 528.046621l229.37046 0 0-48.676558c-18.941088-18.615219-38.208043-45.33641-57.760134-80.204304s-34.501293-71.894666-44.76614-111.121047-15.315804-74.25721-15.15287-105.133219l-64.684832 0c1.099805 48.391424 11.079518 97.678985 29.939138 147.984884s44.032937 95.234974 75.519949 134.86869L382.528502 465.765066z"  horiz-adv-x="1024" />

    
    <glyph glyph-name="qunawandengji08" unicode="&#58930;" d="M998.378615 812 25.621385 812C11.527587 812 0 800.472413 0 786.378615L0-186.378615c0-14.093798 11.527587-25.621385 25.621385-25.621385L998.378615-212c14.093798 0 25.621385 11.527587 25.621385 25.621385L1024 786.378615C1023.959266 800.472413 1012.43168 812 998.378615 812zM780.454274 6.901945c0.69247-25.90652-19.307689-30.713075-41.344524-19.144755l-227.130117 126.070249-226.967182-125.907315c-16.863678-11.44612-40.326186-13.76793-41.507459 12.749592L243.504992 620.22658 780.454274 620.22658 780.454274 6.901945zM440.044234 371.711365c-17.35248 7.332034-29.939138 17.393214-37.841442 30.18354s-11.812721 26.843391-11.812721 42.118461c0 26.110187 9.124309 47.65822 27.332193 64.684832s44.114404 25.539918 77.678826 25.539918c33.238554 0 59.063606-8.513306 77.434425-25.539918s27.576594-38.574645 27.576594-64.684832c0-16.211942-4.236286-30.672342-12.668125-43.299733s-20.285294-22.32197-35.560364-29.002267c19.42989-7.780103 34.175425-19.185489 44.277338-34.134691s15.15287-32.220216 15.15287-51.772306c0-32.301683-10.305581-58.574804-30.916743-78.778631s-48.024822-30.30574-82.24098-30.30574c-31.81288 0-58.330403 8.350372-79.471101 25.051116-24.969649 19.715024-37.47484 46.762083-37.47484 81.141175 0 18.941088 4.684355 36.334301 14.093798 52.138908S419.840407 363.116592 440.044234 371.711365zM447.702136 289.348184c0-18.452285 4.725089-32.871952 14.215999-43.218266s21.262898-15.519472 35.438164-15.519472c13.849397 0 25.295517 4.96949 34.379092 14.908469s13.604996 24.317912 13.604996 43.096066c0 16.374876-4.602888 29.572537-13.849397 39.511516s-20.93703 14.908469-35.071562 14.908469c-16.374876 0-28.594932-5.66196-36.619436-16.945145S447.702136 302.545845 447.702136 289.348184zM453.893631 439.247544c0-13.360595 3.788218-23.788377 11.323919-31.283345s17.637615-11.201718 30.18354-11.201718c12.749592 0 22.932973 3.788218 30.550141 11.323919s11.44612 18.004217 11.44612 31.405545c0 12.586658-3.788218 22.647838-11.323919 30.18354s-17.556148 11.323919-29.939138 11.323919c-12.871793 0-23.13664-3.828951-30.794542-11.44612S453.893631 451.793468 453.893631 439.247544z"  horiz-adv-x="1024" />

    
    <glyph glyph-name="qunawandengji09" unicode="&#58931;" d="M998.378615 812 25.621385 812C11.527587 812 0 800.472413 0 786.378615L0-186.378615c0-14.093798 11.527587-25.621385 25.621385-25.621385L998.378615-212c14.093798 0 25.621385 11.527587 25.621385 25.621385L1024 786.378615C1023.959266 800.472413 1012.43168 812 998.378615 812zM780.454274 6.901945c0.69247-25.90652-19.307689-30.713075-41.344524-19.144755l-227.130117 126.070249-226.967182-125.907315c-16.863678-11.44612-40.326186-13.76793-41.507459 12.749592L243.504992 620.22658 780.454274 620.22658 780.454274 6.901945zM383.994908 263.808266l64.929233 7.1691c1.588607-13.197661 5.743427-22.973706 12.423724-29.368869s15.519472-9.531644 26.476789-9.531644c13.849397 0 25.621385 6.354429 35.315963 19.104022s15.926807 39.144914 18.615219 79.2267c-16.863678-19.55209-37.963642-29.368869-63.259159-29.368869-27.535861 0-51.283504 10.631449-71.242929 31.853614s-29.939138 48.880226-29.939138 82.93345c0 35.478897 10.549982 64.07383 31.609213 85.784797s47.943355 32.586817 80.570906 32.586817c35.478897 0 64.603365-13.727197 87.373404-41.18159s34.134691-72.587136 34.134691-135.438959c0-63.951629-11.853455-110.102709-35.560364-138.412506s-54.582919-42.485063-92.587295-42.485063c-27.372927 0-49.491229 7.2913-66.354907 21.833168S388.76073 234.846732 383.994908 263.808266zM535.76801 410.367477c0 21.6295-4.96949 38.411711-14.908469 50.346633S499.392975 478.636859 486.358248 478.636859c-12.423724 0-22.729305-4.888023-30.916743-14.664068S443.180715 438.147739 443.180715 415.866502c0-22.607104 4.439954-39.185648 13.360595-49.776363s20.040893-15.886073 33.401488-15.886073c12.871793 0 23.747643 5.09169 32.586817 15.275071S535.76801 390.652452 535.76801 410.367477z"  horiz-adv-x="1024" />

    
    <glyph glyph-name="qunawandengji10" unicode="&#58932;" d="M998.378615 812 25.621385 812C11.527587 812 0 800.472413 0 786.378615L0-186.378615c0-14.093798 11.527587-25.621385 25.621385-25.621385L998.378615-212c14.093798 0 25.621385 11.527587 25.621385 25.621385L1024 786.378615C1023.959266 800.472413 1012.43168 812 998.378615 812zM780.454274 6.901945c0.69247-25.90652-19.307689-30.713075-41.344524-19.144755l-227.130117 126.070249-226.967182-125.907315c-16.863678-11.44612-40.326186-13.76793-41.507459 12.749592L243.504992 620.22658 780.454274 620.22658 780.454274 6.901945zM425.868969 197.290425l-54.990254 0 0 207.252158c-20.081626-18.778153-43.788536-32.709018-71.039262-41.670393L299.839453 412.770755C314.218386 417.495843 329.778591 426.375751 346.642269 439.491945S374.9928 467.923943 381.265762 485.398624l44.603206 0L425.868969 197.290425zM601.063845 485.398624c27.820995 0 49.531962-9.938979 65.173635-29.735471 18.655953-23.503242 28.024663-62.444489 28.024663-116.864474 0-54.297784-9.36871-93.279765-28.146863-117.027408-15.560205-19.55209-37.189705-29.368869-65.010701-29.368869-27.943196 0-50.4281 10.75365-67.495445 32.179482-17.108079 21.466566-25.662119 59.715343-25.662119 114.787064 0 54.01265 9.36871 92.913163 28.187597 116.660806C551.61335 475.622578 573.24285 485.398624 601.063845 485.398624zM601.063845 439.817813c-6.639564 0-12.627392-2.118143-17.841282-6.354429s-9.287243-11.853455-12.138589-22.810772c-3.788218-14.215999-5.66196-38.16731-5.66196-71.853932 0-33.645889 1.670074-56.782529 5.09169-69.369187 3.380882-12.627392 7.657902-20.977764 12.790326-25.132583 5.132424-4.195553 11.038784-6.272962 17.719082-6.272962s12.627392 2.158877 17.841282 6.354429c5.213891 4.236286 9.287243 11.853455 12.138589 22.810772 3.788218 14.093798 5.702693 38.004376 5.702693 71.650265 0 33.686622-1.710808 56.823263-5.09169 69.409921-3.421616 12.586658-7.657902 21.018497-12.831059 25.254783C613.60977 437.658936 607.703409 439.817813 601.063845 439.817813z"  horiz-adv-x="1024" />

    
    <glyph glyph-name="qunawanwanglai" unicode="&#58933;" d="M1168.933147 812 60.232208 812C27.091109 812 0 788.870832 0 760.54831l0-754.589098c0-28.322523 27.091109-51.45169 60.232208-51.45169l362.196342 0 146.966587-146.966587c25.752615-25.217218 63.016274-26.82341 90.107383-0.160619l147.127206 147.127206 362.249882 0c33.141099 0 60.232208 23.129168 60.232208 51.45169L1229.111815 760.54831C1229.165355 788.870832 1202.074247 812 1168.933147 812zM309.299079 282.652589c-55.57425 0-100.547632 45.080461-100.547632 100.601172 0 55.57425 45.026921 100.601172 100.547632 100.601172 55.57425 0 100.601172-45.026921 100.601172-100.601172C409.900251 327.73305 364.873329 282.652589 309.299079 282.652589zM614.582678 282.652589c-55.57425 0-100.601172 45.080461-100.601172 100.601172 0 55.57425 45.026921 100.601172 100.601172 100.601172 55.520711 0 100.601172-45.026921 100.601172-100.601172C715.183849 327.73305 670.103388 282.652589 614.582678 282.652589zM919.812736 282.652589c-55.520711 0-100.601172 45.080461-100.601172 100.601172 0 55.57425 45.080461 100.601172 100.601172 100.601172 55.57425 0 100.601172-45.026921 100.601172-100.601172C1020.413908 327.73305 975.386987 282.652589 919.812736 282.652589z"  horiz-adv-x="1230" />

    
    <glyph glyph-name="qunawanxunmi" unicode="&#58934;" d="M1001.918868-97.058374 846.196009 58.059284c63.127114 79.374432 100.928896 179.837789 100.928896 289.14639C947.124905 603.857429 738.93578 812 482.330579 812 225.678824 812 17.536253 603.857429 17.536253 347.205674s208.142571-464.747772 464.794326-464.747772c91.059465 0 175.973813 26.209856 247.666849 71.413712l161.91453-161.309329c6.098563-6.052009 16.014548-6.052009 22.066558 0.046554l87.986907 88.26623C1007.970877-113.026368 1007.970877-103.110384 1001.918868-97.058374zM526.41714 103.682124c-19.36643-17.271504-64.803055-16.433533-78.489907-4.469176-116.757229 102.325514-224.715767 203.25441-224.715767 304.928169 0 61.916712 58.518276 112.194945 130.67685 112.194945 65.361702 0 97.995999-28.118567 130.723404-84.169485 32.634297 56.050918 65.315148 84.169485 130.67685 84.169485 72.158574 0 130.723404-50.278232 130.723404-112.194945C745.965421 304.003637 640.381133 205.448991 526.41714 103.682124z"  horiz-adv-x="1024" />

    
    <glyph glyph-name="qunawanhuifu" unicode="&#58935;" d="M1589.066933 812 265.142857 812C225.566434 812 193.214785 784.37962 193.214785 750.557443L193.214785 531.320679 23.336663 361.442557C-6.777223 330.689311-8.695305 286.18981 23.144855 253.838162l170.06993-170.06993 0-234.261738c0-33.822178 32.351648-61.442557 71.928072-61.442557 564.747253 0 759.112887 0 1323.924076 0 39.576424 0 71.928072 27.62038 71.928072 61.442557L1660.995005 750.557443C1660.995005 784.37962 1628.643357 812 1589.066933 812zM562.573427 179.864136c-66.301698 0-120.071928 53.834166-120.071928 120.135864 0 66.365634 53.77023 120.135864 120.071928 120.135864 66.365634 0 120.1998-53.77023 120.1998-120.135864C682.709291 233.698302 628.939061 179.864136 562.573427 179.864136zM927.136863 179.864136c-66.365634 0-120.135864 53.834166-120.135864 120.135864 0 66.365634 53.77023 120.135864 120.135864 120.135864S1047.272727 366.365634 1047.272727 300C1047.272727 233.698302 993.502498 179.864136 927.136863 179.864136zM1291.7003 179.864136c-66.365634 0-120.135864 53.834166-120.135864 120.135864 0 66.365634 53.77023 120.135864 120.135864 120.135864 66.301698 0 120.135864-53.77023 120.135864-120.135864C1411.836164 233.698302 1358.001998 179.864136 1291.7003 179.864136z"  horiz-adv-x="1662" />

    
    <glyph glyph-name="qunawantupian" unicode="&#58936;" d="M1352.664711 188.126243l0-323.297804c0-42.264392-32.843137-76.828439-73.007434-76.828439L73.007434-212c-20.534252 0-39.143419 9.042071-52.444014 23.509386l368.654001 371.454126 212.838693-192.129433c8.458712-7.642009 21.525963-6.941977 29.138804 1.516735l0.14584 0.175008 428.156664 440.378044L1352.664711 188.126243 1352.664711 188.126243zM1279.657276 812 73.007434 812C32.843137 812 0 777.465121 0 735.200729l0-870.401458c0-4.871051 0.43752-9.625431 1.254223-14.204802l372.562509 375.391802c7.787849 7.846185 20.271741 8.079528 28.409605 0.758367l0.029168 0.029168 212.663685-192.012761 428.331672 440.553052c7.583673 7.787849 19.834221 8.283704 28.001253 1.429231l0.029168 0.029168 281.383428-234.918848L1352.664711 735.171561C1352.664711 777.465121 1319.821574 812 1279.657276 812zM682.938901 409.686159c-24.005241-24.034409-57.227561-38.910075-93.891703-38.910075s-69.886461 14.875666-93.92087 38.910075c-24.034409 24.005241-38.880907 57.227561-38.880907 93.891703 0 36.693309 14.846498 69.886461 38.880907 93.92087 24.034409 24.034409 57.256729 38.880907 93.92087 38.880907s69.886461-14.846498 93.891703-38.880907c24.034409-24.005241 38.910075-57.227561 38.910075-93.92087C721.848976 466.913721 707.002478 433.720569 682.938901 409.686159zM589.076367 595.048623c-25.259464 0-48.127154-10.267126-64.694562-26.776198-16.509072-16.53824-26.776198-39.435098-26.776198-64.694562 0-25.230296 10.267126-48.097986 26.776198-64.665394 16.53824-16.53824 39.435098-26.776198 64.694562-26.776198 25.230296 0 48.097986 10.237958 64.665394 26.776198s26.776198 39.435098 26.776198 64.665394c0 25.259464-10.237958 48.127154-26.776198 64.694562C637.174353 584.781497 614.306662 595.048623 589.076367 595.048623z"  horiz-adv-x="1353" />

    
    <glyph glyph-name="qunawantupianjia" unicode="&#58937;" d="M1063.89372 102.676345l0-254.273719c0-33.218003-25.854067-60.402626-57.443287-60.402626L57.420346-212c-16.150189 0-30.786298 7.111589-41.247216 18.490132l289.946367 292.148666 167.39763-151.132737c6.675717-6.01044 16.93017-5.436925 22.917669 1.215852l0.114703 0.137644 336.745211 346.357327L1063.89372 102.676345 1063.89372 102.676345zM1046.045926 334.170038c-132.275556 0-239.522907 107.270291-239.522907 239.545848 0 6.629836 0.275287 13.190851 0.802921 19.660103L57.420346 593.375989C25.831127 593.375989 0 566.214307 0 532.973363l0-684.570737c0-3.808141 0.36705-7.547461 1.009387-11.172077l293.020409 295.245648c6.125143 6.193965 15.966664 6.354549 22.344154 0.619396l0 0 167.282927-150.995094 336.882855 346.494971c5.941618 6.125143 15.576674 6.538074 22.022985 1.12409l0 0 221.331003-184.763671L1063.89372 334.835316C1057.997984 334.399444 1052.033425 334.170038 1046.045926 334.170038zM537.154379 276.979098c-18.903062-18.903062-45.009476-30.602773-73.845823-30.602773s-54.965701 11.699711-73.868764 30.602773c-18.903062 18.880122-30.579833 45.009476-30.579833 73.845823 0 28.836347 11.67677 54.965701 30.579833 73.845823 18.903062 18.903062 45.032417 30.579833 73.868764 30.579833s54.965701-11.699711 73.845823-30.579833 30.579833-45.009476 30.579833-73.845823C567.734212 321.988575 556.034501 295.85922 537.154379 276.979098zM463.285615 422.743733c-19.866568 0-37.852006-8.075095-50.859332-21.05948-13.007326-13.007326-21.05948-31.015704-21.05948-50.859332s8.075095-37.829066 21.05948-50.859332c13.007326-13.007326 31.015704-21.05948 50.859332-21.05948 19.843627 0 37.829066 8.052154 50.859332 21.05948s21.05948 30.992764 21.05948 50.859332-8.052154 37.852006-21.05948 50.859332C501.137621 414.691579 483.152183 422.743733 463.285615 422.743733zM1055.956269 812c-124.705155 0-225.873244-101.145149-225.873244-225.873244 0-124.728096 101.168089-225.873244 225.873244-225.873244 124.751036 0 225.896185 101.145149 225.896185 225.873244C1281.852454 710.854851 1180.707306 812 1055.956269 812zM1203.464391 561.006788l-121.585232 0 0-122.525797-51.822838 0 0 122.525797-121.608173 0L908.448148 612.187289l121.608173 0L1030.056321 733.795461l51.822838 0L1081.879159 612.187289l121.585232 0L1203.464391 561.006788z"  horiz-adv-x="1282" />

    
    <glyph glyph-name="qunawanjiantoushang" unicode="&#58938;" d="M1030.571866 782.085728l849.155276-849.155276c89.463242-89.463242 5.218689-144.930453-79.249522-144.930453L104.850965-212c-84.542764 0-147.987113 65.38272-68.364828 144.930453l849.155276 849.155276C925.452556 821.971424 990.68617 821.971424 1030.571866 782.085728L1030.571866 782.085728z"  horiz-adv-x="1919" />

    
    <glyph glyph-name="qunawanjiantouxia" unicode="&#58939;" d="M1030.476352-182.022403l849.101183 849.101183C1969.035078 756.461775 1884.721343 812 1800.333061 812L104.814422 812C20.277043 812-43.088717 746.621445 36.453949 667.004232l849.101183-849.101183C925.363738-221.980106 990.593197-221.980106 1030.476352-182.022403L1030.476352-182.022403z"  horiz-adv-x="1918" />

    
    <glyph glyph-name="qunawanjiantouyou" unicode="&#58940;" d="M769.357268 338.21758 316.016828 791.558019C268.294687 839.319962 238.642481 794.304331 238.642481 749.248898L238.642481-155.999122c0-45.135036 34.90602-78.966412 77.374347-36.498085l453.340439 453.340439C790.690935 282.097297 790.690935 316.923714 769.357268 338.21758L769.357268 338.21758z"  horiz-adv-x="1024" />

    
    <glyph glyph-name="qunawanjiantouzuo" unicode="&#58941;" d="M254.624518 338.203877l453.346232 453.346232c47.762553 47.762553 77.375336 2.786149 77.375336-42.309661L785.346086-156.01914c0-45.175415-34.906466-78.967421-77.375336-36.538353L254.624518 260.828541C233.33038 282.082877 233.33038 316.909739 254.624518 338.203877z"  horiz-adv-x="1024" />

    
    <glyph glyph-name="qunawanxianjiantouyou" unicode="&#58942;" d="M246.229788-131.368221c-18.439111-18.439111-18.439111-48.363335 0-66.802446s48.331869-18.439111 66.77098 0l464.785177 464.785177c18.439111 18.407645 18.439111 48.331869 0 66.77098L313.000768 798.170667c-18.439111 18.439111-48.331869 18.439111-66.77098 0s-18.439111-48.331869 0-66.802446l431.368221-431.368221L246.229788-131.368221 246.229788-131.368221z"  horiz-adv-x="1024" />

    
    <glyph glyph-name="qunawanxianjiantouzuo" unicode="&#58943;" d="M777.770212-131.368221c18.439111-18.439111 18.439111-48.363335 0-66.802446s-48.331869-18.439111-66.77098 0L246.245521 266.61451c-18.439111 18.407645-18.439111 48.331869 0 66.77098L710.999232 798.170667c18.439111 18.439111 48.331869 18.439111 66.77098 0s18.439111-48.331869 0-66.802446L346.401991 300 777.770212-131.368221z"  horiz-adv-x="1024" />

    
    <glyph glyph-name="level_4" unicode="&#58885;" d="M998.379 896h-972.757c-14.094 0-25.621-11.528-25.621-25.621v-972.757c0-14.094 11.528-25.621 25.621-25.621h972.757c14.094 0 25.621 11.528 25.621 25.621v972.757c-0.041 14.094-11.568 25.621-25.621 25.621zM780.454 90.902c0.692-25.907-19.308-30.713-41.345-19.145l-227.13 126.070-226.967-125.907c-16.864-11.446-40.326-13.768-41.507 12.75l-0 619.557h536.949v-613.325zM514.057 266.911v70.428h-143.219v58.697l151.814 222.201h56.334v-221.957h43.422v-58.941h-43.422v-70.428h-64.929zM514.057 396.281v119.553l-80.449-119.594 80.449-0z"  horiz-adv-x="1024" />

    
    <glyph glyph-name="qunawanjiantouxia-copy" unicode="&#58912;" d="M1019.404-67.896l796.032 796.032c83.867 83.797 4.822 135.863-74.291 135.863h-1589.549c-79.253 0-138.659-61.293-64.087-135.934l796.032-796.032c37.321-37.39 98.473-37.39 135.863 0.070v0z"  horiz-adv-x="1918" />

    
    <glyph glyph-name="qunawanjiantouzuo1" unicode="&#58944;" d="M254.625908 422.202903l453.343784 453.343784c47.762295 47.762295 77.374918 2.786134 77.374918-42.309433L785.34461-72.017446c0-45.175171-34.906278-78.966995-77.374918-36.538156L254.625908 344.827985C233.331885 366.082206 233.331885 400.90888 254.625908 422.202903z"  horiz-adv-x="1024" />

    
    <glyph glyph-name="qunawantuijian1" unicode="&#59116;" d="M82.735272 896l0-990.575367c1.904601-42.3888 39.432859-38.731966 66.371535-20.447796l362.879821 201.293472 363.154084-201.53726c35.242737-18.482249 67.179087-10.772423 66.097273 30.580274L941.237986 896 82.735272 896zM686.920422 212.537737l-173.013956 84.229075-173.013956-84.229075 29.83367 184.197773-136.765589 132.118363 191.435256 29.574644 88.495381 165.913603 88.495381-165.913603 191.450493-29.574644-136.811299-132.118363L686.920422 212.537737z"  horiz-adv-x="1024" />

    
    <glyph glyph-name="fangdajing" unicode="&#58886;" d="M752.64 222.336l-105.728 72.192c18.944 32 29.952 69.248 29.952 109.056 0 118.144-96.128 214.144-214.144 214.144-118.144 0-214.144-96.128-214.144-214.144S344.576 189.44 462.72 189.44c65.408 0 124.032 29.44 163.328 75.776l106.368-72.704c3.072-2.176 6.656-3.2 10.112-3.2 5.76 0 11.392 2.688 14.848 7.808 5.632 8.448 3.456 19.584-4.736 25.216m-289.92 3.2c-98.176 0-178.176 79.872-178.176 178.176 0 98.176 79.872 178.176 178.176 178.176 98.176 0 178.176-79.872 178.176-178.176-0.128-98.304-80-178.176-178.176-178.176m0 0"  horiz-adv-x="1024" />

    
    <glyph glyph-name="qunawanrenzhengshenfen1" unicode="&#58880;" d="M473.14403938 443.05724156l283.00887093 0 0-36.20191687-283.00887094 0 1e-8 36.20191687ZM473.14403938 541.77238594l283.00887093 0 0-36.20191688-283.00887094 0 1e-8 36.20191688ZM272.42961125 541.77238594l129.99085125 0 0-139.84327125-129.99085125 0 0 139.84327125ZM967.97995156 864L56.02004844 864C42.80711281 864 32 853.19288719 32 839.97995156L32-71.97995156000002c0-13.21293563 10.80711281-24.02004844 24.02004844-24.02004844L967.97995156-96c13.21293563 0 24.02004844 10.80711281 24.02004844 24.02004844L992 839.97995156C991.96181188 853.19288719 981.1547 864 967.97995156 864zM825.15804125 173.87230968999995c0-10.08154688-7.86666094-18.29189719-17.52814312-18.29189719L216.33191469 155.58041249999997c-9.66148219 0-17.52814312 8.21035031-17.52814313 18.29189719L198.80377062 594.1658775000001c0 10.08154688 7.86666094 18.29189719 17.52814313 18.29189719l591.29798344 0c9.66148219 0 17.52814312-8.21035031 17.52814312-18.29189719L825.15804125 173.87230968999995z"  horiz-adv-x="1024" />

    
    <glyph glyph-name="xia" unicode="&#58898;" d="M728.064 264.704l-193.536-210.432c-5.632-5.632-16.896-11.264-22.528-11.264-11.264 0-16.896 5.632-22.528 11.264l-193.536 210.432c-11.264 11.264-11.264 28.672-11.264 39.936 5.632 11.264 16.896 22.528 34.304 22.528h387.072c11.264 0 28.672-11.264 28.672-22.528 4.608-11.776 4.608-28.672-6.656-39.936z"  horiz-adv-x="1024" />

    
    <glyph glyph-name="arrow_right" unicode="&#59060;" d="M512.1721736 237.74177153999995l-378.21230145 378.20582873c-15.88398459 15.89692997-41.6660088 15.89692997-57.55128794 0-15.89822451-15.8839846-15.89822451-41.6660088 0-57.55128793l406.98729813-406.98729813c15.88398459-15.89692997 41.6660088-15.89692997 57.55128795 0l406.9860036 406.98729813c7.94846498 7.94328684 11.92399202 18.3604363 11.92399201 28.77499669s-3.97552703 20.83170987-11.92399201 28.77499671c-15.88398459 15.89692997-41.6660088 15.89692997-57.55128794 0l-378.2110069-378.20582875z"  horiz-adv-x="1024" />

    
    <glyph glyph-name="qunawan" unicode="&#59729;" d="M945.619413-27.605333h-19.328v231.68h28.074667a21.504 21.504 0 1 1 9.088 41.856l-113.792 42.666666v104.106667h53.12a21.461333 21.461333 0 0 1 11.008 41.130667l-149.461333 68.992V680.96h10.24a21.504 21.504 0 1 1 9.088 41.856l-256 95.104V878.592A16.938667 16.938667 0 0 1 509.096747 895.573333c-9.386667 0-17.066667-7.594667-17.066667-16.981333V817.92L234.87808 722.773333a21.504 21.504 0 0 1 8.746667-41.856h12.117333v-178.090666L106.75008 433.792a21.461333 21.461333 0 0 1 11.008-41.088H170.75008v-104.106667l-113.792-42.666666a21.504 21.504 0 0 1 9.130667-41.898667h25.770666v-231.637333H72.616747a31.018667 31.018667 0 0 1-31.104-30.933334c0-17.066667 13.909333-30.933333 31.104-30.933333h872.277333a31.018667 31.018667 0 0 1 31.146667 30.933333c0 17.066667-13.952 30.933333-31.146667 30.933334h0.768z m-390.613333 0v111.317333c0 17.749333 7.168 34.773333 19.968 47.232 12.8 12.373333 30.037333 19.2 47.914667 18.773333h12.501333c35.456-1.621333 63.36-30.72 63.317333-66.005333v-111.317333h-143.701333z m-235.52 111.317333c0 36.437333 29.696 66.005333 66.346667 66.005333h9.472c17.877333 0.426667 35.157333-6.4 47.914666-18.773333 12.8-12.458667 20.010667-29.44 19.968-47.232v-111.317333H319.48608v111.317333z"  horiz-adv-x="1024" />

    
    <glyph glyph-name="ditu" unicode="&#58882;" d="M819.348 691.3489999999999c-78.654 78.653-187.23 127.384-307.239 127.384-120.014 0-228.591-48.731-307.349-127.385-78.763-79.07-127.28-187.647-127.28-307.338 0-120.129 48.518-228.705 127.28-307.359 78.758-78.862 187.335-127.385 307.349-127.385 120.009 0 228.585 48.522 307.238 127.385 78.545 78.654 127.172 187.23 127.172 307.359 0.001 119.691-48.626 228.268-127.171 307.339z m-47.339-47.438c62.087-62.202 102.165-146.414 107.398-239.82H762.415a34.738 34.738 0 0 1-10.182 9.449c-2.909 73.521-16.636 141.713-37.547 200.201a34.282 34.282 0 0 1 3.799 10.044c15.351 8.524 30.322 17.957 44.546 28.883a235.98 235.98 0 0 0 8.978-8.757z m-93.824-472.038a34.389 34.389 0 0 1-9.187-4.158c-3.31 1.279-6.578 2.561-9.84 3.834-36.949 13.804-75.989 22.486-116.781 25.272a34.686 34.686 0 0 1-10.396 10.692v147.64a34.743 34.743 0 0 1 9.411 9.194h164.549a34.753 34.753 0 0 1 6.494-7.052c-2.826-68.379-14.988-131.783-34.25-185.422zM483.71 196.957c-41.362-2.645-80.909-11.395-118.117-25.408a1391.563 1391.563 0 0 1-8.398-3.129 34.275 34.275 0 0 1-11.443 4.236c-18.99 53.161-31.007 115.857-33.729 183.451a34.707 34.707 0 0 1 8.037 8.24h164.549a34.747 34.747 0 0 1 7.619-7.935v-150.158a34.665 34.665 0 0 1-8.518-9.297zM346.651 597.8820000000001a34.33 34.33 0 0 1 6.767 2.99c3.992-1.594 7.926-3.114 11.643-4.629 37.75-14.02 77.378-22.967 118.796-25.444a34.712 34.712 0 0 1 8.369-8.302v-150.909a34.737 34.737 0 0 1-7.308-7.497H319.747a34.697 34.697 0 0 1-7.744 7.815c2.731 68.795 15.096 132.176 34.648 185.976z m193.482-27.096c41.605 2.457 81.397 11.41 119.025 25.457a1462.2 1462.2 0 0 1 9.724 3.846 34.293 34.293 0 0 1 9.022-3.155c19.467-53.907 31.741-117.365 34.549-186.216a34.67 34.67 0 0 1-6.2-6.626H541.081a34.723 34.723 0 0 1-9.1 8.756V562.645a34.696 34.696 0 0 1 8.152 8.141zM731.18 679.171c-9.238-6.752-18.851-13.046-28.891-18.671a34.29 34.29 0 0 1-9.752 3.925c-2.169 4.311-4.408 8.572-6.877 12.828-9.195 16.66-18.917 31.414-28.963 45.093 26.607-11.334 51.724-26.076 74.483-43.175z m-158.37 67.54c29.171-17.954 55.999-48.939 77.8-88.913 1.595-2.984 3.188-5.871 4.735-8.754a34.302 34.302 0 0 1-4.866-13.376 344.326 344.326 0 0 1-5.536-2.235c-32.762-11.948-67.932-19.989-104.824-22.593a34.698 34.698 0 0 1-8.137 8.121V751.193c13.788-0.416 27.576-2.345 40.828-4.482z m-121.401 0c13.251 1.71 27.034 4.066 40.817 4.482v-132.084a34.697 34.697 0 0 1-8.335-8.254c-36.83 2.619-72.035 10.651-104.834 22.578-2.946 1.254-5.957 2.436-8.901 3.629a34.27 34.27 0 0 1-2.873 8.799c2.058 3.956 4.144 7.858 6.327 11.938 22.009 39.972 48.835 70.958 77.799 88.912z m-83.68-24.366c-10.473-13.679-20.194-28.433-29.281-45.093-2.279-4.044-4.401-8.095-6.51-12.187a34.283 34.283 0 0 1-11.676-3.628c-9.244 5.384-18.357 11.354-27.338 17.733 23.082 17.1 47.979 31.842 74.805 43.175zM252.21 643.9110000000001c2.564 2.981 6.192 5.984 8.977 8.757 13.032-10.014 26.702-18.761 40.823-26.716a34.342 34.342 0 0 1 6.426-15.688c-20.721-58.027-33.586-125.395-36.492-197.92a34.703 34.703 0 0 1-8.359-8.253H145.02c4.702 93.407 44.988 177.618 107.19 239.82z m0-520.018c-62.202 61.982-102.488 146.193-107.19 240.455h118.254a34.688 34.688 0 0 1 8.689-8.704c2.985-73.728 16.201-142.457 37.458-200.302a34.305 34.305 0 0 1-3.845-11.147c-15.392-9.128-30.261-18.771-44.391-29.071l-8.975 8.769z m40.714-35.688a311.822 311.822 0 0 0 30.379 20.045 34.4 34.4 0 0 1 7.367-2.928c2.531-5.044 5.042-10.078 7.778-14.773 9.087-16.243 18.809-31.413 29.281-44.883-26.826 11.541-51.723 25.438-74.805 42.539z m158.485-67.332c-28.964 18.601-55.79 49.158-77.799 88.913a726.847 726.847 0 0 0-5.156 9.808 34.332 34.332 0 0 1 5.114 12.496 75.193 75.193 0 0 0 5.489 1.634c33.434 13.165 69.561 20.757 107.006 23.342a34.68 34.68 0 0 1 6.163-5.985v-133.836c-13.783 0.208-27.566 1.49-40.817 3.628z m121.401 0c-13.252-2.138-27.04-3.42-40.828-3.629V149.82000000000005a34.711 34.711 0 0 1 7.866 7.132c36.991-2.692 72.252-10.259 105.095-23.229a76.898 76.898 0 0 0 9.097-2.909 34.292 34.292 0 0 1 3.204-8.498c-2.125-4.17-4.374-8.303-6.634-12.53-21.801-39.755-48.63-70.312-77.8-88.913z m83.887 24.793c10.473 13.47 19.768 28.64 28.963 44.883 2.674 4.457 5.087 9.222 7.423 14.009a34.281 34.281 0 0 1 9.24 2.837c10.027-5.743 19.629-12.092 28.856-19.189-22.758-17.102-47.875-30.999-74.482-42.54z m115.312 78.227l-8.978-8.77c-13.035 9.499-26.708 18.434-40.996 26.927a34.33 34.33 0 0 1-6.305 16.732c20.459 56.807 33.61 123.85 36.485 195.668a34.724 34.724 0 0 1 10.511 9.897h116.681c-5.233-94.261-45.311-178.472-107.398-240.454z"  horiz-adv-x="1024" />

    
    <glyph glyph-name="down" unicode="&#58884;" d="M575.20434019 384.07440346l-163.43866676-163.44146388c-6.86973294-6.8641387-6.86973294-18.00563717 0-24.87033531 6.8641387-6.87029237 18.00563717-6.87029237 24.8703353 0l175.87635182 175.87635183c6.86973294 6.8641387 6.86973294 18.00563717-1e-8 24.8703353l-175.87635181 175.87579238c-3.43262877 3.43486648-7.93431777 5.15285913-12.43488795 5.15285915s-9.00225918-1.71799266-12.43488791-5.15285915c-6.86973294-6.8641387-6.86973294-18.00563717-1e-8-24.87033528l163.43866676-163.44090448z"  horiz-adv-x="1024" />

    
    <glyph glyph-name="qunawanvip1" unicode="&#58881;" d="M82.742182 896l0-990.577001c1.889367-42.38887 39.417688-38.73203 66.356409-20.44783l362.88042 201.293804 363.154683-201.537593c35.242795-18.482279 67.179198-10.772441 66.097382 30.580324L941.231076 896 82.742182 896zM736.859432 646.679698c-15.450149-1.325604-28.325273-6.856575-38.747267-16.592911-10.300099-9.827757-22.23054-29.574693-35.593242-59.438886-17.918516-40.636634-37.863531-88.632659-60.002649-144.064258-22.047698-55.446836-44.567737-114.504802-67.468697-177.097712l-22.428618 5.073865-31.585955-5.073865c-12.387545 29.285193-29.391851 69.556144-50.845312 121.087114-76.900297 184.030472-127.578004 276.106655-151.804569 276.106655L275.64049 646.679698l0 20.143094c21.925803-1.721762 41.124213-3.824445 57.336203-6.39947 16.211991-2.666446 30.626035-5.82047 43.30308-9.553494 16.029149 4.129182 32.637297 7.542232 49.717787 10.223915 17.171911 2.666446 35.120901 4.586287 53.999337 5.729049l0-19.853594c-12.311361-1.904604-20.889698-4.967208-25.567406-9.248758-4.769129-4.296787-7.161312-10.985757-7.161312-20.127857 0-12.981782 7.923153-40.545213 23.754223-82.736004 15.846307-42.068896 38.076846-94.83405 66.798277-158.188802 29.955614 76.610797 50.571049 131.859555 61.63299 165.731035 11.077178 33.962901 16.608148 57.260019 16.608148 69.937064 0 10.589599-2.864525 18.61941-8.486916 23.845644-5.744286 5.363365-15.191123 8.883074-28.447168 10.482941l0 20.143094c11.747598-0.579 24.226565-1.919841 37.497847-3.915866 13.271282-2.102683 27.578668-4.967208 43.028817-8.669758 14.04836 3.336866 27.395826 6.079496 40.179529 8.090758 12.783703 2.102683 25.095064 3.519708 37.025505 4.494866L736.859432 646.679698z"  horiz-adv-x="1024" />

    


  </font>
</defs>
</svg>
